<?xml version="1.0" standalone="no"?>
<!DOCTYPE svg PUBLIC "-//W3C//DTD SVG 20010904//EN"
 "http://www.w3.org/TR/2001/REC-SVG-20010904/DTD/svg10.dtd">
<svg version="1.0" xmlns="http://www.w3.org/2000/svg"
 width="142.000000pt" height="142.000000pt" viewBox="0 0 142.000000 142.000000"
 preserveAspectRatio="xMidYMid meet">
<metadata>
Created by potrace 1.14, written by Peter Selinger 2001-2017
</metadata>
<g transform="translate(0.000000,142.000000) scale(0.100000,-0.100000)"
fill="#000000" stroke="none">
<path d="M25 1194 l-25 -27 0 -269 0 -269 26 -24 c15 -14 32 -25 38 -25 17 0
36 -59 32 -100 -9 -89 52 -147 141 -136 138 17 324 172 411 343 37 71 69 213
71 309 2 83 0 92 -23 117 -14 15 -32 27 -41 27 -8 0 -15 7 -15 15 0 9 -12 27
-26 40 l-27 25 -269 0 -269 0 -24 -26z m516 -613 c-112 -141 -295 -239 -371
-199 -27 14 -50 70 -42 100 3 15 15 18 57 18 l53 0 -10 -36 c-6 -24 -6 -40 0
-46 11 -11 15 -6 31 45 7 20 18 37 24 38 82 5 246 77 272 119 4 6 9 9 12 6 3
-3 -9 -23 -26 -45z"/>
<path d="M1302 942 c-25 -25 -82 -120 -127 -213 l-38 -76 -61 -12 c-71 -15
-67 -14 -126 -6 -54 8 -57 10 -40 30 22 27 64 44 82 34 19 -11 41 11 32 34 -9
25 -33 28 -70 11 -33 -16 -94 -76 -94 -94 0 -11 -137 -80 -161 -80 -34 0 -29
19 12 42 53 29 68 51 50 72 -12 14 -16 14 -45 -1 -50 -26 -79 -73 -69 -112 11
-44 83 -36 174 21 38 23 51 27 72 19 14 -5 28 -7 31 -4 3 4 6 2 6 -3 0 -5 -15
-18 -32 -28 -88 -51 -125 -137 -71 -164 57 -29 178 77 185 162 2 20 11 26 55
39 29 8 53 11 53 6 0 -4 -13 -42 -30 -85 -18 -46 -26 -83 -21 -91 10 -19 22
-4 45 60 10 27 23 50 30 51 6 2 67 18 136 36 69 18 129 36 134 41 23 21 -10
19 -101 -4 -106 -28 -153 -38 -153 -32 0 2 30 29 66 60 44 37 73 55 85 52 26
-7 44 17 25 32 -20 16 -52 6 -98 -30 -20 -16 -39 -29 -42 -29 -9 0 97 186 125
218 24 27 28 37 18 48 -15 18 -15 18 -37 -4z m-322 -382 c0 -31 -91 -120 -123
-120 -56 0 -18 68 64 115 53 30 59 31 59 5z"/>
</g>
</svg>
