<svg width="544" height="31" viewBox="0 0 544 31" fill="none" xmlns="http://www.w3.org/2000/svg">
<g filter="url(#filter0_b_6_32)">
<rect x="0.360718" y="0.880371" width="543.314" height="29.1268" fill="white" fill-opacity="0.15"/>
</g>
<path opacity="0.3" d="M38.1867 12.8411V11.5511H40.5967V18.8411H39.1567V12.8411H38.1867ZM42.7597 18.9111C42.5064 18.9111 42.2964 18.8344 42.1297 18.6811C41.9697 18.5211 41.8897 18.3244 41.8897 18.0911C41.8897 17.8577 41.9697 17.6644 42.1297 17.5111C42.2964 17.3511 42.5064 17.2711 42.7597 17.2711C43.0064 17.2711 43.2097 17.3511 43.3697 17.5111C43.5297 17.6644 43.6097 17.8577 43.6097 18.0911C43.6097 18.3244 43.5297 18.5211 43.3697 18.6811C43.2097 18.8344 43.0064 18.9111 42.7597 18.9111ZM44.5774 15.1011C44.5774 13.9477 44.784 13.0444 45.1974 12.3911C45.6174 11.7377 46.3107 11.4111 47.2774 11.4111C48.244 11.4111 48.934 11.7377 49.3474 12.3911C49.7674 13.0444 49.9774 13.9477 49.9774 15.1011C49.9774 16.2611 49.7674 17.1711 49.3474 17.8311C48.934 18.4911 48.244 18.8211 47.2774 18.8211C46.3107 18.8211 45.6174 18.4911 45.1974 17.8311C44.784 17.1711 44.5774 16.2611 44.5774 15.1011ZM48.5974 15.1011C48.5974 14.6077 48.564 14.1944 48.4974 13.8611C48.4374 13.5211 48.3107 13.2444 48.1174 13.0311C47.9307 12.8177 47.6507 12.7111 47.2774 12.7111C46.904 12.7111 46.6207 12.8177 46.4274 13.0311C46.2407 13.2444 46.114 13.5211 46.0474 13.8611C45.9874 14.1944 45.9574 14.6077 45.9574 15.1011C45.9574 15.6077 45.9874 16.0344 46.0474 16.3811C46.1074 16.7211 46.234 16.9977 46.4274 17.2111C46.6207 17.4177 46.904 17.5211 47.2774 17.5211C47.6507 17.5211 47.934 17.4177 48.1274 17.2111C48.3207 16.9977 48.4474 16.7211 48.5074 16.3811C48.5674 16.0344 48.5974 15.6077 48.5974 15.1011ZM54.2622 18.8411L53.1222 17.1211L52.1122 18.8411H50.6122L52.4222 16.0611L50.5922 13.3011H52.1722L53.3022 15.0111L54.3222 13.3011H55.8222L54.0022 16.0611L55.8422 18.8411H54.2622Z" fill="white"/>
<g filter="url(#filter1_b_6_32)">
<rect x="71.0554" y="7.35278" width="370.947" height="16.1815" fill="white" fill-opacity="0.12"/>
</g>
<g filter="url(#filter2_b_6_32)">
<rect x="71.0554" y="7.35278" width="161.247" height="16.1815" fill="#FB6D3A"/>
</g>
<g clip-path="url(#clip0_6_32)">
<path d="M25.8953 15.7239L18.8794 20.4881C18.8296 20.5218 18.7717 20.5412 18.7119 20.5441C18.6521 20.547 18.5926 20.5334 18.5399 20.5046C18.4871 20.4758 18.443 20.433 18.4122 20.3807C18.3814 20.3284 18.3651 20.2686 18.3651 20.2076V10.6793C18.3651 10.6184 18.3814 10.5585 18.4122 10.5062C18.443 10.4539 18.4871 10.4111 18.5399 10.3823C18.5926 10.3535 18.6521 10.3399 18.7119 10.3428C18.7717 10.3457 18.8296 10.3651 18.8794 10.3989L25.8953 15.163C25.9406 15.1938 25.9778 15.2355 26.0035 15.2844C26.0292 15.3333 26.0426 15.388 26.0426 15.4435C26.0426 15.499 26.0292 15.5536 26.0035 15.6025C25.9778 15.6514 25.9406 15.6932 25.8953 15.7239V15.7239Z" fill="white"/>
</g>
<g opacity="0.3" clip-path="url(#clip1_6_32)">
<path d="M488.47 9.37549H500.385C500.561 9.37549 500.729 9.44652 500.853 9.57297C500.977 9.69941 501.047 9.8709 501.047 10.0497V20.8374C501.047 21.0162 500.977 21.1877 500.853 21.3142C500.729 21.4406 500.561 21.5116 500.385 21.5116H488.47C488.295 21.5116 488.126 21.4406 488.002 21.3142C487.878 21.1877 487.808 21.0162 487.808 20.8374V10.0497C487.808 9.8709 487.878 9.69941 488.002 9.57297C488.126 9.44652 488.295 9.37549 488.47 9.37549ZM491.449 14.9379V13.4209H490.456V17.4663H491.449V15.9492H492.773V17.4663H493.766V13.4209H492.773V14.9379H491.449ZM496.082 14.4322H497.075C497.163 14.4322 497.247 14.4677 497.309 14.531C497.371 14.5942 497.406 14.6799 497.406 14.7693V16.1178C497.406 16.2072 497.371 16.293 497.309 16.3562C497.247 16.4194 497.163 16.4549 497.075 16.4549H496.082V14.4322ZM495.09 13.4209V17.4663H497.075C497.426 17.4663 497.763 17.3242 498.011 17.0713C498.26 16.8184 498.399 16.4754 498.399 16.1178V14.7693C498.399 14.4117 498.26 14.0687 498.011 13.8158C497.763 13.5629 497.426 13.4209 497.075 13.4209H495.09Z" fill="white"/>
</g>
<g opacity="0.3" clip-path="url(#clip2_6_32)">
<path d="M528.318 9.37549H529.642V13.4209H528.318V10.7239H525.67V9.37549H528.318ZM517.727 9.37549H520.375V10.7239H517.727V13.4209H516.403V9.37549H517.727ZM528.318 20.1632V17.4663H529.642V21.5116H525.67V20.1632H528.318ZM517.727 20.1632H520.375V21.5116H516.403V17.4663H517.727V20.1632Z" fill="white"/>
</g>
<g opacity="0.3" clip-path="url(#clip3_6_32)">
<path d="M461.787 18.1404H459.212C459.037 18.1404 458.869 18.0694 458.744 17.9429C458.62 17.8165 458.551 17.645 458.551 17.4662V13.4208C458.551 13.242 458.62 13.0705 458.744 12.944C458.869 12.8176 459.037 12.7466 459.212 12.7466H461.787L465.291 9.8258C465.339 9.78531 465.398 9.75969 465.46 9.7519C465.523 9.74412 465.586 9.7545 465.643 9.78184C465.699 9.80918 465.747 9.85235 465.781 9.90633C465.814 9.9603 465.832 10.0229 465.832 10.0867V20.8003C465.832 20.8641 465.814 20.9267 465.781 20.9807C465.747 21.0346 465.699 21.0778 465.643 21.1051C465.586 21.1325 465.523 21.1429 465.46 21.1351C465.398 21.1273 465.339 21.1017 465.291 21.0612L461.787 18.1404H461.787ZM470.734 20.9277L469.797 19.973C470.424 19.4043 470.926 18.7065 471.27 17.9258C471.613 17.1451 471.79 16.299 471.789 15.4435C471.79 14.5441 471.594 13.6559 471.216 12.8432C470.838 12.0306 470.286 11.314 469.602 10.7455L470.542 9.78805C471.349 10.4835 471.997 11.3499 472.441 12.3267C472.885 13.3034 473.114 14.3671 473.113 15.4435C473.113 17.6165 472.196 19.5711 470.734 20.9277ZM468.389 18.5389L467.448 17.5801C467.769 17.3284 468.029 17.0048 468.208 16.6343C468.387 16.2638 468.48 15.8564 468.48 15.4435C468.48 14.4793 467.983 13.6332 467.235 13.1565L468.188 12.1863C468.689 12.562 469.097 13.0526 469.377 13.6184C469.658 14.1843 469.804 14.8095 469.803 15.4435C469.803 16.6854 469.254 17.7966 468.389 18.5389Z" fill="white"/>
</g>
<path d="M81.1712 16.2001C81.1712 15.5081 81.2872 14.9681 81.5192 14.5801C81.7552 14.1881 82.1592 13.9921 82.7312 13.9921C83.3032 13.9921 83.7052 14.1881 83.9372 14.5801C84.1732 14.9681 84.2912 15.5081 84.2912 16.2001C84.2912 16.9001 84.1732 17.4481 83.9372 17.8441C83.7052 18.2361 83.3032 18.4321 82.7312 18.4321C82.1592 18.4321 81.7552 18.2361 81.5192 17.8441C81.2872 17.4481 81.1712 16.9001 81.1712 16.2001ZM83.6192 16.2001C83.6192 15.8761 83.5972 15.6021 83.5532 15.3781C83.5132 15.1541 83.4292 14.9721 83.3012 14.8321C83.1732 14.6881 82.9832 14.6161 82.7312 14.6161C82.4792 14.6161 82.2892 14.6881 82.1612 14.8321C82.0332 14.9721 81.9472 15.1541 81.9032 15.3781C81.8632 15.6021 81.8432 15.8761 81.8432 16.2001C81.8432 16.5361 81.8632 16.8181 81.9032 17.0461C81.9432 17.2741 82.0272 17.4581 82.1552 17.5981C82.2872 17.7381 82.4792 17.8081 82.7312 17.8081C82.9832 17.8081 83.1732 17.7381 83.3012 17.5981C83.4332 17.4581 83.5192 17.2741 83.5592 17.0461C83.5992 16.8181 83.6192 16.5361 83.6192 16.2001ZM85.0149 16.2001C85.0149 15.5081 85.1309 14.9681 85.3629 14.5801C85.5989 14.1881 86.0029 13.9921 86.5749 13.9921C87.1469 13.9921 87.5489 14.1881 87.7809 14.5801C88.0169 14.9681 88.1349 15.5081 88.1349 16.2001C88.1349 16.9001 88.0169 17.4481 87.7809 17.8441C87.5489 18.2361 87.1469 18.4321 86.5749 18.4321C86.0029 18.4321 85.5989 18.2361 85.3629 17.8441C85.1309 17.4481 85.0149 16.9001 85.0149 16.2001ZM87.4629 16.2001C87.4629 15.8761 87.4409 15.6021 87.3969 15.3781C87.3569 15.1541 87.2729 14.9721 87.1449 14.8321C87.0169 14.6881 86.8269 14.6161 86.5749 14.6161C86.3229 14.6161 86.1329 14.6881 86.0049 14.8321C85.8769 14.9721 85.7909 15.1541 85.7469 15.3781C85.7069 15.6021 85.6869 15.8761 85.6869 16.2001C85.6869 16.5361 85.7069 16.8181 85.7469 17.0461C85.7869 17.2741 85.8709 17.4581 85.9989 17.5981C86.1309 17.7381 86.3229 17.8081 86.5749 17.8081C86.8269 17.8081 87.0169 17.7381 87.1449 17.5981C87.2769 17.4581 87.3629 17.2741 87.4029 17.0461C87.4429 16.8181 87.4629 16.5361 87.4629 16.2001ZM89.2247 18.4861C89.1007 18.4861 88.9967 18.4441 88.9127 18.3601C88.8287 18.2761 88.7867 18.1721 88.7867 18.0481C88.7867 17.9241 88.8287 17.8201 88.9127 17.7361C88.9967 17.6521 89.1007 17.6101 89.2247 17.6101C89.3447 17.6101 89.4467 17.6521 89.5307 17.7361C89.6147 17.8201 89.6567 17.9241 89.6567 18.0481C89.6567 18.1721 89.6147 18.2761 89.5307 18.3601C89.4467 18.4441 89.3447 18.4861 89.2247 18.4861ZM89.2247 15.9661C89.1007 15.9661 88.9967 15.9241 88.9127 15.8401C88.8287 15.7561 88.7867 15.6521 88.7867 15.5281C88.7867 15.4041 88.8287 15.3001 88.9127 15.2161C88.9967 15.1321 89.1007 15.0901 89.2247 15.0901C89.3447 15.0901 89.4467 15.1321 89.5307 15.2161C89.6147 15.3001 89.6567 15.4041 89.6567 15.5281C89.6567 15.6521 89.6147 15.7561 89.5307 15.8401C89.4467 15.9241 89.3447 15.9661 89.2247 15.9661ZM90.3294 16.2001C90.3294 15.5081 90.4454 14.9681 90.6774 14.5801C90.9134 14.1881 91.3174 13.9921 91.8894 13.9921C92.4614 13.9921 92.8634 14.1881 93.0954 14.5801C93.3314 14.9681 93.4494 15.5081 93.4494 16.2001C93.4494 16.9001 93.3314 17.4481 93.0954 17.8441C92.8634 18.2361 92.4614 18.4321 91.8894 18.4321C91.3174 18.4321 90.9134 18.2361 90.6774 17.8441C90.4454 17.4481 90.3294 16.9001 90.3294 16.2001ZM92.7774 16.2001C92.7774 15.8761 92.7554 15.6021 92.7114 15.3781C92.6714 15.1541 92.5874 14.9721 92.4594 14.8321C92.3314 14.6881 92.1414 14.6161 91.8894 14.6161C91.6374 14.6161 91.4474 14.6881 91.3194 14.8321C91.1914 14.9721 91.1054 15.1541 91.0614 15.3781C91.0214 15.6021 91.0014 15.8761 91.0014 16.2001C91.0014 16.5361 91.0214 16.8181 91.0614 17.0461C91.1014 17.2741 91.1854 17.4581 91.3134 17.5981C91.4454 17.7381 91.6374 17.8081 91.8894 17.8081C92.1414 17.8081 92.3314 17.7381 92.4594 17.5981C92.5914 17.4581 92.6774 17.2741 92.7174 17.0461C92.7574 16.8181 92.7774 16.5361 92.7774 16.2001ZM94.0831 14.6941V14.0701H95.3311V18.4441H94.6411V14.6941H94.0831ZM96.6368 18.4861C96.5128 18.4861 96.4088 18.4441 96.3248 18.3601C96.2408 18.2761 96.1988 18.1721 96.1988 18.0481C96.1988 17.9241 96.2408 17.8201 96.3248 17.7361C96.4088 17.6521 96.5128 17.6101 96.6368 17.6101C96.7568 17.6101 96.8588 17.6521 96.9428 17.7361C97.0268 17.8201 97.0688 17.9241 97.0688 18.0481C97.0688 18.1721 97.0268 18.2761 96.9428 18.3601C96.8588 18.4441 96.7568 18.4861 96.6368 18.4861ZM96.6368 15.9661C96.5128 15.9661 96.4088 15.9241 96.3248 15.8401C96.2408 15.7561 96.1988 15.6521 96.1988 15.5281C96.1988 15.4041 96.2408 15.3001 96.3248 15.2161C96.4088 15.1321 96.5128 15.0901 96.6368 15.0901C96.7568 15.0901 96.8588 15.1321 96.9428 15.2161C97.0268 15.3001 97.0688 15.4041 97.0688 15.5281C97.0688 15.6521 97.0268 15.7561 96.9428 15.8401C96.8588 15.9241 96.7568 15.9661 96.6368 15.9661ZM97.7295 15.1501C97.7535 14.7781 97.8955 14.4881 98.1555 14.2801C98.4195 14.0721 98.7555 13.9681 99.1635 13.9681C99.4435 13.9681 99.6855 14.0181 99.8895 14.1181C100.093 14.2181 100.247 14.3541 100.351 14.5261C100.455 14.6981 100.507 14.8921 100.507 15.1081C100.507 15.3561 100.441 15.5681 100.309 15.7441C100.177 15.9201 100.019 16.0381 99.8355 16.0981V16.1221C100.071 16.1941 100.255 16.3261 100.387 16.5181C100.519 16.7061 100.585 16.9481 100.585 17.2441C100.585 17.4801 100.531 17.6901 100.423 17.8741C100.315 18.0581 100.155 18.2041 99.9435 18.3121C99.7315 18.4161 99.4775 18.4681 99.1815 18.4681C98.7495 18.4681 98.3935 18.3581 98.1135 18.1381C97.8375 17.9141 97.6895 17.5941 97.6695 17.1781H98.3295C98.3455 17.3901 98.4275 17.5641 98.5755 17.7001C98.7235 17.8321 98.9235 17.8981 99.1755 17.8981C99.4195 17.8981 99.6075 17.8321 99.7395 17.7001C99.8715 17.5641 99.9375 17.3901 99.9375 17.1781C99.9375 16.8981 99.8475 16.7001 99.6675 16.5841C99.4915 16.4641 99.2195 16.4041 98.8515 16.4041H98.6955V15.8401H98.8575C99.1815 15.8361 99.4275 15.7821 99.5955 15.6781C99.7675 15.5741 99.8535 15.4101 99.8535 15.1861C99.8535 14.9941 99.7915 14.8421 99.6675 14.7301C99.5435 14.6141 99.3675 14.5561 99.1395 14.5561C98.9155 14.5561 98.7415 14.6141 98.6175 14.7301C98.4935 14.8421 98.4195 14.9821 98.3955 15.1501H97.7295ZM104.124 14.6581H102.114V15.8521C102.198 15.7401 102.322 15.6461 102.486 15.5701C102.654 15.4941 102.832 15.4561 103.02 15.4561C103.356 15.4561 103.628 15.5281 103.836 15.6721C104.048 15.8161 104.198 15.9981 104.286 16.2181C104.378 16.4381 104.424 16.6701 104.424 16.9141C104.424 17.2101 104.366 17.4741 104.25 17.7061C104.138 17.9341 103.968 18.1141 103.74 18.2461C103.516 18.3781 103.24 18.4441 102.912 18.4441C102.476 18.4441 102.126 18.3361 101.862 18.1201C101.598 17.9041 101.44 17.6181 101.388 17.2621H102.054C102.098 17.4501 102.196 17.6001 102.348 17.7121C102.5 17.8201 102.69 17.8741 102.918 17.8741C103.202 17.8741 103.414 17.7881 103.554 17.6161C103.698 17.4441 103.77 17.2161 103.77 16.9321C103.77 16.6441 103.698 16.4241 103.554 16.2721C103.41 16.1161 103.198 16.0381 102.918 16.0381C102.722 16.0381 102.556 16.0881 102.42 16.1881C102.288 16.2841 102.192 16.4161 102.132 16.5841H101.484V14.0581H104.124V14.6581ZM109.005 12.7801L107.373 19.4941H106.701L108.327 12.7801H109.005ZM111.335 16.2001C111.335 15.5081 111.451 14.9681 111.683 14.5801C111.919 14.1881 112.323 13.9921 112.895 13.9921C113.467 13.9921 113.869 14.1881 114.101 14.5801C114.337 14.9681 114.455 15.5081 114.455 16.2001C114.455 16.9001 114.337 17.4481 114.101 17.8441C113.869 18.2361 113.467 18.4321 112.895 18.4321C112.323 18.4321 111.919 18.2361 111.683 17.8441C111.451 17.4481 111.335 16.9001 111.335 16.2001ZM113.783 16.2001C113.783 15.8761 113.761 15.6021 113.717 15.3781C113.677 15.1541 113.593 14.9721 113.465 14.8321C113.337 14.6881 113.147 14.6161 112.895 14.6161C112.643 14.6161 112.453 14.6881 112.325 14.8321C112.197 14.9721 112.111 15.1541 112.067 15.3781C112.027 15.6021 112.007 15.8761 112.007 16.2001C112.007 16.5361 112.027 16.8181 112.067 17.0461C112.107 17.2741 112.191 17.4581 112.319 17.5981C112.451 17.7381 112.643 17.8081 112.895 17.8081C113.147 17.8081 113.337 17.7381 113.465 17.5981C113.597 17.4581 113.683 17.2741 113.723 17.0461C113.763 16.8181 113.783 16.5361 113.783 16.2001ZM115.179 16.2001C115.179 15.5081 115.295 14.9681 115.527 14.5801C115.763 14.1881 116.167 13.9921 116.739 13.9921C117.311 13.9921 117.713 14.1881 117.945 14.5801C118.181 14.9681 118.299 15.5081 118.299 16.2001C118.299 16.9001 118.181 17.4481 117.945 17.8441C117.713 18.2361 117.311 18.4321 116.739 18.4321C116.167 18.4321 115.763 18.2361 115.527 17.8441C115.295 17.4481 115.179 16.9001 115.179 16.2001ZM117.627 16.2001C117.627 15.8761 117.605 15.6021 117.561 15.3781C117.521 15.1541 117.437 14.9721 117.309 14.8321C117.181 14.6881 116.991 14.6161 116.739 14.6161C116.487 14.6161 116.297 14.6881 116.169 14.8321C116.041 14.9721 115.955 15.1541 115.911 15.3781C115.871 15.6021 115.851 15.8761 115.851 16.2001C115.851 16.5361 115.871 16.8181 115.911 17.0461C115.951 17.2741 116.035 17.4581 116.163 17.5981C116.295 17.7381 116.487 17.8081 116.739 17.8081C116.991 17.8081 117.181 17.7381 117.309 17.5981C117.441 17.4581 117.527 17.2741 117.567 17.0461C117.607 16.8181 117.627 16.5361 117.627 16.2001ZM119.389 18.4861C119.265 18.4861 119.161 18.4441 119.077 18.3601C118.993 18.2761 118.951 18.1721 118.951 18.0481C118.951 17.9241 118.993 17.8201 119.077 17.7361C119.161 17.6521 119.265 17.6101 119.389 17.6101C119.509 17.6101 119.611 17.6521 119.695 17.7361C119.779 17.8201 119.821 17.9241 119.821 18.0481C119.821 18.1721 119.779 18.2761 119.695 18.3601C119.611 18.4441 119.509 18.4861 119.389 18.4861ZM119.389 15.9661C119.265 15.9661 119.161 15.9241 119.077 15.8401C118.993 15.7561 118.951 15.6521 118.951 15.5281C118.951 15.4041 118.993 15.3001 119.077 15.2161C119.161 15.1321 119.265 15.0901 119.389 15.0901C119.509 15.0901 119.611 15.1321 119.695 15.2161C119.779 15.3001 119.821 15.4041 119.821 15.5281C119.821 15.6521 119.779 15.7561 119.695 15.8401C119.611 15.9241 119.509 15.9661 119.389 15.9661ZM120.493 16.2001C120.493 15.5081 120.609 14.9681 120.841 14.5801C121.077 14.1881 121.481 13.9921 122.053 13.9921C122.625 13.9921 123.027 14.1881 123.259 14.5801C123.495 14.9681 123.613 15.5081 123.613 16.2001C123.613 16.9001 123.495 17.4481 123.259 17.8441C123.027 18.2361 122.625 18.4321 122.053 18.4321C121.481 18.4321 121.077 18.2361 120.841 17.8441C120.609 17.4481 120.493 16.9001 120.493 16.2001ZM122.941 16.2001C122.941 15.8761 122.919 15.6021 122.875 15.3781C122.835 15.1541 122.751 14.9721 122.623 14.8321C122.495 14.6881 122.305 14.6161 122.053 14.6161C121.801 14.6161 121.611 14.6881 121.483 14.8321C121.355 14.9721 121.269 15.1541 121.225 15.3781C121.185 15.6021 121.165 15.8761 121.165 16.2001C121.165 16.5361 121.185 16.8181 121.225 17.0461C121.265 17.2741 121.349 17.4581 121.477 17.5981C121.609 17.7381 121.801 17.8081 122.053 17.8081C122.305 17.8081 122.495 17.7381 122.623 17.5981C122.755 17.4581 122.841 17.2741 122.881 17.0461C122.921 16.8181 122.941 16.5361 122.941 16.2001ZM125.075 16.1581C124.659 15.9501 124.451 15.6221 124.451 15.1741C124.451 14.9581 124.505 14.7601 124.613 14.5801C124.721 14.4001 124.883 14.2581 125.099 14.1541C125.315 14.0461 125.579 13.9921 125.891 13.9921C126.199 13.9921 126.461 14.0461 126.677 14.1541C126.897 14.2581 127.061 14.4001 127.169 14.5801C127.277 14.7601 127.331 14.9581 127.331 15.1741C127.331 15.3981 127.273 15.5961 127.157 15.7681C127.045 15.9361 126.895 16.0661 126.707 16.1581C126.935 16.2421 127.115 16.3801 127.247 16.5721C127.379 16.7601 127.445 16.9821 127.445 17.2381C127.445 17.4981 127.379 17.7281 127.247 17.9281C127.115 18.1281 126.931 18.2821 126.695 18.3901C126.459 18.4981 126.191 18.5521 125.891 18.5521C125.591 18.5521 125.323 18.4981 125.087 18.3901C124.855 18.2821 124.673 18.1281 124.541 17.9281C124.409 17.7281 124.343 17.4981 124.343 17.2381C124.343 16.9781 124.409 16.7541 124.541 16.5661C124.673 16.3781 124.851 16.2421 125.075 16.1581ZM126.677 15.2581C126.677 15.0341 126.607 14.8621 126.467 14.7421C126.327 14.6221 126.135 14.5621 125.891 14.5621C125.651 14.5621 125.461 14.6221 125.321 14.7421C125.181 14.8621 125.111 15.0361 125.111 15.2641C125.111 15.4641 125.183 15.6281 125.327 15.7561C125.475 15.8801 125.663 15.9421 125.891 15.9421C126.119 15.9421 126.307 15.8781 126.455 15.7501C126.603 15.6221 126.677 15.4581 126.677 15.2581ZM125.891 16.4581C125.627 16.4581 125.411 16.5241 125.243 16.6561C125.079 16.7841 124.997 16.9701 124.997 17.2141C124.997 17.4421 125.077 17.6281 125.237 17.7721C125.397 17.9121 125.615 17.9821 125.891 17.9821C126.163 17.9821 126.377 17.9101 126.533 17.7661C126.693 17.6221 126.773 17.4381 126.773 17.2141C126.773 16.9741 126.691 16.7881 126.527 16.6561C126.367 16.5241 126.155 16.4581 125.891 16.4581ZM128.529 18.4861C128.405 18.4861 128.301 18.4441 128.217 18.3601C128.133 18.2761 128.091 18.1721 128.091 18.0481C128.091 17.9241 128.133 17.8201 128.217 17.7361C128.301 17.6521 128.405 17.6101 128.529 17.6101C128.649 17.6101 128.751 17.6521 128.835 17.7361C128.919 17.8201 128.961 17.9241 128.961 18.0481C128.961 18.1721 128.919 18.2761 128.835 18.3601C128.751 18.4441 128.649 18.4861 128.529 18.4861ZM128.529 15.9661C128.405 15.9661 128.301 15.9241 128.217 15.8401C128.133 15.7561 128.091 15.6521 128.091 15.5281C128.091 15.4041 128.133 15.3001 128.217 15.2161C128.301 15.1321 128.405 15.0901 128.529 15.0901C128.649 15.0901 128.751 15.1321 128.835 15.2161C128.919 15.3001 128.961 15.4041 128.961 15.5281C128.961 15.6521 128.919 15.7561 128.835 15.8401C128.751 15.9241 128.649 15.9661 128.529 15.9661ZM129.634 16.2001C129.634 15.5081 129.75 14.9681 129.982 14.5801C130.218 14.1881 130.622 13.9921 131.194 13.9921C131.766 13.9921 132.168 14.1881 132.4 14.5801C132.636 14.9681 132.754 15.5081 132.754 16.2001C132.754 16.9001 132.636 17.4481 132.4 17.8441C132.168 18.2361 131.766 18.4321 131.194 18.4321C130.622 18.4321 130.218 18.2361 129.982 17.8441C129.75 17.4481 129.634 16.9001 129.634 16.2001ZM132.082 16.2001C132.082 15.8761 132.06 15.6021 132.016 15.3781C131.976 15.1541 131.892 14.9721 131.764 14.8321C131.636 14.6881 131.446 14.6161 131.194 14.6161C130.942 14.6161 130.752 14.6881 130.624 14.8321C130.496 14.9721 130.41 15.1541 130.366 15.3781C130.326 15.6021 130.306 15.8761 130.306 16.2001C130.306 16.5361 130.326 16.8181 130.366 17.0461C130.406 17.2741 130.49 17.4581 130.618 17.5981C130.75 17.7381 130.942 17.8081 131.194 17.8081C131.446 17.8081 131.636 17.7381 131.764 17.5981C131.896 17.4581 131.982 17.2741 132.022 17.0461C132.062 16.8181 132.082 16.5361 132.082 16.2001ZM133.478 16.2001C133.478 15.5081 133.594 14.9681 133.826 14.5801C134.062 14.1881 134.466 13.9921 135.038 13.9921C135.61 13.9921 136.012 14.1881 136.244 14.5801C136.48 14.9681 136.598 15.5081 136.598 16.2001C136.598 16.9001 136.48 17.4481 136.244 17.8441C136.012 18.2361 135.61 18.4321 135.038 18.4321C134.466 18.4321 134.062 18.2361 133.826 17.8441C133.594 17.4481 133.478 16.9001 133.478 16.2001ZM135.926 16.2001C135.926 15.8761 135.904 15.6021 135.86 15.3781C135.82 15.1541 135.736 14.9721 135.608 14.8321C135.48 14.6881 135.29 14.6161 135.038 14.6161C134.786 14.6161 134.596 14.6881 134.468 14.8321C134.34 14.9721 134.254 15.1541 134.21 15.3781C134.17 15.6021 134.15 15.8761 134.15 16.2001C134.15 16.5361 134.17 16.8181 134.21 17.0461C134.25 17.2741 134.334 17.4581 134.462 17.5981C134.594 17.7381 134.786 17.8081 135.038 17.8081C135.29 17.8081 135.48 17.7381 135.608 17.5981C135.74 17.4581 135.826 17.2741 135.866 17.0461C135.906 16.8181 135.926 16.5361 135.926 16.2001Z" fill="#FFC6B1"/>
<defs>
<filter id="filter0_b_6_32" x="-119.639" y="-119.12" width="783.314" height="269.127" filterUnits="userSpaceOnUse" color-interpolation-filters="sRGB">
<feFlood flood-opacity="0" result="BackgroundImageFix"/>
<feGaussianBlur in="BackgroundImageFix" stdDeviation="60"/>
<feComposite in2="SourceAlpha" operator="in" result="effect1_backgroundBlur_6_32"/>
<feBlend mode="normal" in="SourceGraphic" in2="effect1_backgroundBlur_6_32" result="shape"/>
</filter>
<filter id="filter1_b_6_32" x="-48.9446" y="-112.647" width="610.947" height="256.182" filterUnits="userSpaceOnUse" color-interpolation-filters="sRGB">
<feFlood flood-opacity="0" result="BackgroundImageFix"/>
<feGaussianBlur in="BackgroundImageFix" stdDeviation="60"/>
<feComposite in2="SourceAlpha" operator="in" result="effect1_backgroundBlur_6_32"/>
<feBlend mode="normal" in="SourceGraphic" in2="effect1_backgroundBlur_6_32" result="shape"/>
</filter>
<filter id="filter2_b_6_32" x="-48.9446" y="-112.647" width="401.247" height="256.182" filterUnits="userSpaceOnUse" color-interpolation-filters="sRGB">
<feFlood flood-opacity="0" result="BackgroundImageFix"/>
<feGaussianBlur in="BackgroundImageFix" stdDeviation="60"/>
<feComposite in2="SourceAlpha" operator="in" result="effect1_backgroundBlur_6_32"/>
<feBlend mode="normal" in="SourceGraphic" in2="effect1_backgroundBlur_6_32" result="shape"/>
</filter>
<clipPath id="clip0_6_32">
<rect width="15.8864" height="16.1815" fill="white" transform="translate(13.0696 7.35278)"/>
</clipPath>
<clipPath id="clip1_6_32">
<rect width="15.8864" height="16.1815" fill="white" transform="translate(486.484 7.35278)"/>
</clipPath>
<clipPath id="clip2_6_32">
<rect width="15.8864" height="16.1815" fill="white" transform="translate(515.079 7.35278)"/>
</clipPath>
<clipPath id="clip3_6_32">
<rect width="15.8864" height="16.1815" fill="white" transform="translate(457.889 7.35278)"/>
</clipPath>
</defs>
</svg>
